<?xml version="1.0" standalone="no"?>
<!DOCTYPE svg PUBLIC "-//W3C//DTD SVG 20010904//EN"
 "http://www.w3.org/TR/2001/REC-SVG-20010904/DTD/svg10.dtd">
<svg version="1.0" xmlns="http://www.w3.org/2000/svg"
 width="800.000000pt" height="288.000000pt" viewBox="0 0 800.000000 288.000000"
 preserveAspectRatio="xMidYMid meet">
<metadata>
Created by potrace 1.13, written by Peter Selinger 2001-2015
</metadata>
<g transform="translate(0.000000,288.000000) scale(0.100000,-0.100000)"
fill="#000000" stroke="none">
<path d="M3325 2690 c-55 -4 -117 -15 -137 -24 -45 -19 -71 -20 -98 -4 -17 11
-24 8 -53 -20 -18 -17 -38 -32 -44 -32 -15 0 -83 -77 -83 -94 0 -17 -51 -56
-73 -56 -15 0 -146 -140 -165 -177 -5 -10 -10 -37 -10 -60 -1 -41 -22 -102
-47 -133 -18 -21 -28 -117 -14 -125 14 -9 44 -79 52 -123 8 -39 100 -150 132
-158 11 -3 40 -1 63 4 28 7 54 6 76 0 27 -9 46 -6 99 11 94 30 116 28 124 -9
7 -36 31 -52 70 -45 49 9 59 -6 44 -67 -8 -29 -18 -59 -23 -65 -14 -18 4 -65
42 -111 37 -44 60 -102 60 -155 0 -21 4 -47 10 -57 8 -14 4 -25 -15 -48 -13
-16 -34 -58 -45 -94 l-22 -65 35 -69 c22 -45 37 -91 41 -133 5 -45 18 -84 42
-128 19 -35 34 -74 34 -88 0 -13 10 -34 22 -45 19 -17 30 -20 63 -14 22 4 58
8 80 9 52 2 100 13 133 31 52 26 172 139 184 171 7 19 23 37 39 43 47 20 63
46 62 100 -1 48 1 51 54 95 31 25 61 45 68 45 7 0 28 17 47 38 31 35 35 46 41
116 4 49 3 85 -4 98 -6 11 -8 36 -4 58 4 24 2 41 -5 45 -22 14 53 122 176 254
86 93 117 140 149 230 35 95 42 153 21 170 -13 11 -20 11 -40 -2 -35 -23 -144
-66 -150 -59 -3 3 -6 13 -6 22 0 18 -57 77 -92 94 -13 6 -28 26 -33 43 -6 18
-21 43 -34 57 -13 14 -25 36 -26 50 -5 42 -16 66 -36 76 -10 6 -19 17 -19 24
0 7 -12 34 -26 59 -20 37 -23 50 -15 66 16 29 13 63 -7 88 -14 19 -26 22 -72
22 -30 -1 -80 -1 -110 -2 -31 0 -79 8 -108 18 -49 18 -54 18 -87 2 -26 -12
-35 -23 -35 -41 0 -25 0 -25 -37 -9 -21 8 -42 22 -48 30 -7 9 -29 18 -50 22
-38 6 -38 7 -40 53 -2 48 -18 79 -39 76 -6 0 -56 -4 -111 -8z m133 -40 c8 -21
7 -33 -3 -48 -13 -17 -12 -20 8 -30 12 -6 37 -14 55 -17 18 -4 36 -14 41 -23
10 -18 86 -46 101 -37 5 3 7 11 4 18 -5 14 20 40 47 50 9 3 29 -1 43 -8 35
-19 142 -38 166 -30 16 5 19 -2 26 -62 9 -84 -1 -298 -17 -376 -6 -31 -9 -60
-6 -64 4 -3 30 2 59 12 29 10 73 21 98 25 25 4 60 14 78 21 31 13 35 12 52 -9
26 -32 32 -112 28 -377 -3 -229 -3 -230 -30 -275 -21 -36 -26 -53 -22 -85 7
-52 -12 -81 -48 -72 -24 6 -53 51 -44 66 13 20 -108 327 -144 366 -10 11 -22
36 -27 55 -8 29 -14 35 -40 38 l-30 3 -6 -68 c-4 -37 -7 -88 -7 -113 0 -42
-49 -189 -72 -217 -5 -7 -11 -48 -12 -93 -2 -79 -2 -80 22 -80 25 0 25 0 18
-76 -6 -67 -5 -79 15 -111 18 -29 20 -39 11 -54 -10 -15 -7 -23 14 -44 20 -20
29 -23 45 -15 27 15 36 6 50 -43 20 -71 18 -98 -6 -109 -12 -5 -30 -27 -39
-49 -10 -21 -27 -44 -38 -50 -13 -7 -93 -10 -234 -7 -241 3 -236 2 -252 81 -8
42 -8 49 7 54 67 22 250 112 268 131 26 28 95 41 118 22 18 -15 20 -1 4 34 -9
19 -21 26 -48 28 l-36 3 -8 65 c-5 36 -9 117 -11 180 -2 103 -6 126 -38 220
-34 96 -54 181 -60 253 -2 15 -5 28 -8 28 -10 2 -226 -12 -341 -22 -187 -16
-298 16 -346 100 -34 59 -36 92 -13 152 68 172 397 642 470 673 15 6 50 12 78
13 47 2 51 0 60 -27z"/>
<path d="M3448 2167 c-49 -70 -88 -130 -88 -132 0 -8 179 -5 183 3 3 4 2 63
-2 132 l-6 125 -87 -128z"/>
<path d="M1638 1836 c-150 -40 -220 -199 -161 -363 19 -52 85 -115 139 -134
44 -15 146 -18 217 -6 l47 8 0 140 0 139 -95 0 -95 0 0 -40 0 -40 50 0 50 0 0
-65 0 -64 -33 -6 c-19 -4 -52 -2 -74 4 -89 24 -138 96 -131 193 9 126 119 192
253 153 31 -9 58 -15 60 -13 2 2 5 21 7 43 l3 40 -50 11 c-66 16 -129 16 -187
0z"/>
<path d="M2143 1831 c-52 -24 -83 -72 -83 -126 0 -61 28 -96 108 -138 101 -53
124 -93 80 -135 -33 -30 -66 -35 -121 -18 -26 8 -49 11 -51 8 -2 -4 -6 -23 -8
-42 -3 -33 -1 -35 42 -48 86 -26 197 6 233 66 10 18 17 51 17 80 0 69 -28 107
-118 155 -84 45 -106 75 -78 106 25 27 66 34 116 21 23 -6 43 -10 45 -8 2 2 6
19 10 39 8 43 0 48 -90 55 -46 4 -70 0 -102 -15z"/>
<path d="M6819 1836 c-128 -45 -192 -151 -175 -288 17 -131 114 -218 247 -221
35 -1 81 2 102 6 35 7 37 10 37 47 0 44 -11 56 -40 40 -30 -16 -123 -14 -157
4 -17 8 -42 29 -57 46 -119 142 32 356 201 285 20 -8 37 -14 39 -12 2 1 6 21
10 44 6 41 6 41 -32 52 -52 14 -131 13 -175 -3z"/>
<path d="M534 1827 c-2 -7 -3 -120 -2 -252 l3 -240 145 0 145 0 0 35 0 35
-102 3 -103 3 0 214 0 215 -40 0 c-24 0 -43 -5 -46 -13z"/>
<path d="M990 1585 l0 -255 145 0 145 0 0 40 0 40 -100 0 -100 0 0 70 0 69 93
3 92 3 3 38 3 37 -95 0 -96 0 0 65 0 65 100 0 100 0 0 40 0 40 -145 0 -145 0
0 -255z"/>
<path d="M4923 1823 c-4 -10 -51 -121 -104 -248 -54 -126 -94 -234 -90 -238 5
-5 25 -7 46 -5 36 3 38 6 62 66 l25 62 109 0 110 0 29 -65 c29 -64 30 -65 69
-65 22 0 42 4 45 8 3 5 -42 119 -99 253 l-104 244 -45 3 c-37 3 -48 0 -53 -15z
m92 -189 c20 -52 35 -97 32 -100 -2 -3 -38 -4 -80 -2 l-75 3 32 80 c18 44 35
88 39 98 3 9 8 17 11 17 2 0 21 -43 41 -96z"/>
<path d="M5382 1588 l3 -253 40 0 40 0 3 113 3 112 90 0 90 0 -3 38 -3 37 -87
3 -88 3 0 59 0 60 95 0 95 0 0 40 0 40 -140 0 -140 0 2 -252z"/>
<path d="M5835 1828 c-3 -7 -4 -121 -3 -253 l3 -240 40 0 40 0 3 108 3 107 30
0 c51 0 64 -15 110 -120 l43 -100 43 0 c23 0 44 4 48 10 3 5 -21 63 -53 129
-54 110 -57 121 -40 127 28 9 58 64 58 107 0 51 -23 93 -63 114 -43 23 -254
32 -262 11z m212 -92 c24 -21 26 -27 18 -52 -13 -36 -47 -54 -102 -54 l-43 0
0 65 0 65 49 0 c38 0 56 -6 78 -24z"/>
<path d="M6372 1588 l3 -253 40 0 40 0 0 250 0 250 -43 3 -42 3 2 -253z"/>
<path d="M7252 1601 c-56 -132 -103 -245 -104 -253 -2 -9 10 -13 41 -13 44 0
45 1 65 50 33 78 26 75 145 75 l108 0 24 -62 c24 -61 26 -63 63 -66 21 -2 43
1 48 6 5 5 -32 106 -94 253 l-103 244 -46 3 -46 3 -101 -240z m207 -18 l21
-53 -80 0 c-46 0 -80 4 -80 10 0 5 17 51 37 102 l37 93 22 -50 c13 -28 32 -74
43 -102z"/>
</g>
</svg>
